<svg width="32" height="32" viewBox="0 0 32 32" fill="none" xmlns="http://www.w3.org/2000/svg">
<path fill-rule="evenodd" clip-rule="evenodd" d="M9 12.1429C9 8.18121 12.1506 5 16 5C19.8494 5 23 8.18121 23 12.1429V22H16.009C16.006 22 16.003 22 16 22C15.997 22 15.994 22 15.991 22H9V12.1429ZM13.1707 24H8C7.44772 24 7 23.5523 7 23V12.1429C7 7.11016 11.0128 3 16 3C20.9872 3 25 7.11016 25 12.1429V23C25 23.5523 24.5523 24 24 24H18.8293C18.9398 24.3128 19 24.6494 19 25C19 26.6569 17.6569 28 16 28C14.3431 28 13 26.6569 13 25C13 24.6494 13.0602 24.3128 13.1707 24ZM15.9948 24C15.4449 24.0028 15 24.4495 15 25C15 25.5523 15.4477 26 16 26C16.5523 26 17 25.5523 17 25C17 24.4495 16.5551 24.0028 16.0052 24H15.9948Z" fill="#343232"/>
</svg>
