<svg width="24" height="24" viewBox="0 0 24 24" fill="none" xmlns="http://www.w3.org/2000/svg">
<path fill-rule="evenodd" clip-rule="evenodd" d="M20.3109 7.20455C18.9076 10.4764 15.709 12.7502 12.0002 12.7502C8.29134 12.7502 5.09283 10.4764 3.68947 7.20455C3.52619 6.82388 3.08523 6.64764 2.70455 6.81092C2.32388 6.9742 2.14764 7.41516 2.31092 7.79583C2.68288 8.66304 3.16439 9.47118 3.73782 10.2019L2.46987 11.4699C2.17698 11.7628 2.17698 12.2376 2.46987 12.5305C2.76276 12.8234 3.23764 12.8234 3.53053 12.5305L4.74522 11.3158C5.05947 11.6179 5.39199 11.9006 5.74092 12.162L4.62616 13.8342C4.3964 14.1788 4.48953 14.6445 4.83417 14.8742C5.17882 15.104 5.64447 15.0109 5.87424 14.6662L7.00229 12.9741C7.38727 13.1848 7.78663 13.3719 8.19852 13.5336L7.5387 15.513C7.40771 15.906 7.62008 16.3307 8.01304 16.4617C8.40599 16.5927 8.83073 16.3803 8.96172 15.9874L9.63116 13.9791C10.1568 14.1015 10.6976 14.1841 11.2502 14.2235V16.5002C11.2502 16.9144 11.586 17.2502 12.0002 17.2502C12.4144 17.2502 12.7502 16.9144 12.7502 16.5002V14.2235C13.3028 14.1841 13.8436 14.1015 14.3692 13.9791L15.0387 15.9874C15.1697 16.3803 15.5944 16.5927 15.9874 16.4617C16.3803 16.3307 16.5927 15.906 16.4617 15.513L15.8019 13.5336C16.2138 13.3719 16.6131 13.1848 16.9981 12.9741L18.1262 14.6662C18.3559 15.0109 18.8216 15.104 19.1662 14.8742C19.5109 14.6445 19.604 14.1788 19.3742 13.8342L18.2595 12.162C18.6084 11.9006 18.9409 11.6179 19.2552 11.3158L20.4699 12.5305C20.7628 12.8234 21.2376 12.8234 21.5305 12.5305C21.8234 12.2376 21.8234 11.7628 21.5305 11.4699L20.2626 10.2019C20.836 9.47117 21.3175 8.66303 21.6895 7.79583C21.8527 7.41516 21.6765 6.9742 21.2958 6.81092C20.9152 6.64764 20.4742 6.82388 20.3109 7.20455Z" fill="#333333"/>
</svg>
