<svg width="16" height="16" viewBox="0 0 16 16" fill="current" xmlns="http://www.w3.org/2000/svg">
<path fill-rule="evenodd" clip-rule="evenodd" d="M11.5 3C11.2239 3 11 3.22386 11 3.5C11 3.77614 11.2239 4 11.5 4H13.2929L8.97982 8.31308L7.08218 6.6263C6.88782 6.45353 6.59348 6.45859 6.40517 6.63793L1.15517 11.6379C0.955208 11.8284 0.947489 12.1449 1.13793 12.3448C1.32837 12.5448 1.64486 12.5525 1.84483 12.3621L6.76168 7.67936L8.66782 9.3737C8.86569 9.54959 9.16636 9.54075 9.35355 9.35355L14 4.70711V6.5C14 6.77614 14.2239 7 14.5 7C14.7761 7 15 6.77614 15 6.5V3.5C15 3.22386 14.7761 3 14.5 3H11.5Z"/>
</svg>
