<svg width="20" height="14" viewBox="0 0 20 14" fill="none" xmlns="http://www.w3.org/2000/svg">
<path fill-rule="evenodd" clip-rule="evenodd" d="M10.7502 3.27664V1C10.7502 0.585786 10.4144 0.25 10.0002 0.25C9.58597 0.25 9.25018 0.585786 9.25018 1V3.27664C8.69757 3.31605 8.15682 3.39866 7.63114 3.52114L6.9617 1.51282C6.83072 1.11986 6.40598 0.907495 6.01302 1.03848C5.62006 1.16947 5.40769 1.59421 5.53868 1.98716L6.1985 3.96663C5.78662 4.12827 5.38726 4.31539 5.00228 4.52606L3.87422 2.83397C3.64446 2.48932 3.1788 2.39619 2.83416 2.62596C2.48951 2.85572 2.39638 3.32137 2.62614 3.66602L3.74091 5.33817C3.39198 5.59961 3.05946 5.88231 2.74521 6.18436L1.53051 4.96967C1.23762 4.67678 0.762747 4.67678 0.469854 4.96967C0.176961 5.26256 0.176961 5.73744 0.469854 6.03033L1.73782 7.29829C1.16438 8.02902 0.682875 8.83716 0.31092 9.70436C0.147642 10.085 0.323877 10.526 0.704552 10.6893C1.08523 10.8526 1.52619 10.6763 1.68946 10.2956C2.45067 8.52092 3.74004 7.03986 5.35253 6.05604C4.96789 6.78599 4.75018 7.61757 4.75018 8.5C4.75018 11.3995 7.10069 13.75 10.0002 13.75C12.8997 13.75 15.2502 11.3995 15.2502 8.5C15.2502 7.61757 15.0325 6.78598 14.6478 6.05603C16.2603 7.03985 17.5497 8.52091 18.3109 10.2956C18.4742 10.6763 18.9152 10.8526 19.2958 10.6893C19.6765 10.526 19.8527 10.085 19.6895 9.70436C19.3175 8.83716 18.836 8.02902 18.2626 7.29828L19.5305 6.03033C19.8234 5.73744 19.8234 5.26256 19.5305 4.96967C19.2376 4.67678 18.7627 4.67678 18.4699 4.96967L17.2552 6.18436C16.9409 5.88231 16.6084 5.5996 16.2595 5.33816L17.3742 3.66602C17.604 3.32137 17.5109 2.85572 17.1662 2.62596C16.8216 2.39619 16.3559 2.48932 16.1261 2.83397L14.9981 4.52605C14.6131 4.31538 14.2138 4.12827 13.8019 3.96663L14.4617 1.98716C14.5927 1.59421 14.3803 1.16947 13.9873 1.03848C13.5944 0.907494 13.1696 1.11986 13.0387 1.51282L12.3692 3.52113C11.8436 3.39865 11.3028 3.31605 10.7502 3.27664ZM6.25018 8.5C6.25018 6.42893 7.92912 4.75 10.0002 4.75C12.0713 4.75 13.7502 6.42893 13.7502 8.5C13.7502 10.5711 12.0713 12.25 10.0002 12.25C7.92912 12.25 6.25018 10.5711 6.25018 8.5ZM9.25018 8.5C9.25018 8.08579 9.58597 7.75 10.0002 7.75C10.4144 7.75 10.7502 8.08579 10.7502 8.5C10.7502 8.91421 10.4144 9.25 10.0002 9.25C9.58597 9.25 9.25018 8.91421 9.25018 8.5ZM10.0002 6.25C8.75754 6.25 7.75018 7.25736 7.75018 8.5C7.75018 9.74264 8.75754 10.75 10.0002 10.75C11.2428 10.75 12.2502 9.74264 12.2502 8.5C12.2502 7.25736 11.2428 6.25 10.0002 6.25Z" fill="#333333"/>
</svg>
