<svg fill="current" width="16" height="16" viewBox="0 0 16 16" xmlns="http://www.w3.org/2000/svg">
<path fill-rule="evenodd" clip-rule="evenodd" d="M7.67992 1.11589C7.86534 0.96137 8.13468 0.96137 8.3201 1.11589L14.3201 6.11589C14.5322 6.29267 14.5609 6.60795 14.3841 6.82009C14.2073 7.03223 13.8921 7.06089 13.6799 6.88411L13 6.31752V12.5C13 13.6046 12.1046 14.5 11 14.5H9.50001H6.50001H5.00001C3.89544 14.5 3.00001 13.6046 3.00001 12.5V6.31752L2.3201 6.88411C2.10797 7.06089 1.79268 7.03223 1.6159 6.82009C1.43912 6.60795 1.46778 6.29267 1.67992 6.11589L7.67992 1.11589ZM7.00001 13.5H9.00001V10C9.00001 9.72386 8.77615 9.5 8.50001 9.5H7.50001C7.22387 9.5 7.00001 9.72386 7.00001 10V13.5ZM10 13.5V10C10 9.17157 9.32844 8.5 8.50001 8.5H7.50001C6.67159 8.5 6.00001 9.17157 6.00001 10V13.5H5.00001C4.44773 13.5 4.00001 13.0523 4.00001 12.5V5.5C4.00001 5.49478 3.99993 5.48957 3.99977 5.48439L8.00001 2.15085L12.0003 5.48439C12.0002 5.48746 12.0001 5.49053 12.0001 5.49362C12 5.49574 12 5.49787 12 5.5V12.5C12 13.0523 11.5523 13.5 11 13.5H10Z"/>
</svg>
