<svg width="29" height="30" viewBox="0 0 29 30" fill="none" xmlns="http://www.w3.org/2000/svg">
<path fill-rule="evenodd" clip-rule="evenodd" d="M24.4302 22.7935C24.1628 22.5456 21.9911 20.3217 21.9911 13.3043C21.9401 10.9053 21.0545 8.59915 19.4867 6.7826C18.6453 5.77676 17.6036 4.95718 16.428 4.37608C16.4333 4.3175 16.4333 4.25857 16.428 4.19999C16.428 2.21897 14.8221 0.613037 12.8411 0.613037C10.86 0.613037 9.25409 2.21897 9.25409 4.19999C9.2488 4.25857 9.2488 4.3175 9.25409 4.37608C8.0785 4.95718 7.03681 5.77676 6.1954 6.7826C4.62763 8.59915 3.74205 10.9053 3.69105 13.3043C3.69105 20.3087 1.52583 22.5261 1.25844 22.7739C0.524706 23.2128 0.183355 24.0944 0.430181 24.913C0.690596 25.7706 1.49074 26.3493 2.3867 26.3283H8.76496C8.40554 26.704 8.40554 27.296 8.76496 27.6717C9.81708 28.7522 11.2612 29.3617 12.7693 29.3617C14.2774 29.3617 15.7215 28.7522 16.7737 27.6717C17.1088 27.3015 17.1088 26.7376 16.7737 26.3674H23.2367C24.1327 26.3885 24.9328 25.8097 25.1932 24.9522C25.4599 24.1428 25.1463 23.2554 24.4302 22.7935ZM12.8606 2.54347C13.5434 2.6017 14.1344 3.04118 14.3867 3.67825C13.3801 3.46868 12.3411 3.46868 11.3345 3.67825C11.5868 3.04118 12.1779 2.6017 12.8606 2.54347ZM12.8606 5.47825C16.9954 5.47825 20.0345 9.65217 20.0345 13.3043C19.9979 15.5025 20.2545 17.6957 20.7976 19.8261H4.92366C5.46676 17.6957 5.72337 15.5025 5.6867 13.3043C5.6867 9.65217 8.72583 5.47825 12.8606 5.47825ZM12.815 27.4174C11.8353 27.4279 10.8936 27.0394 10.2063 26.3413H15.3584C14.6874 27.0239 13.7721 27.4111 12.815 27.4174ZM2.42583 24.3913C3.24159 23.6895 3.86549 22.7918 4.23888 21.7826H21.4889C21.8623 22.7918 22.4862 23.6895 23.3019 24.3913H2.42583Z" fill="#666666"/>
<circle cx="22.4995" cy="11.25" r="6.25" fill="#28cc9e"/>
</svg>
