<svg width="115" height="115" viewBox="0 0 115 115" fill="none" xmlns="http://www.w3.org/2000/svg">
<path d="M37.8411 17.1965C59.412 12.4942 73.8697 18.988 83.9976 29.4223C95.0656 40.8253 110.467 65.6532 80.7006 88.3181C43.4931 116.649 61.8476 84.4935 41.2558 78.3259C10.642 69.1565 10.8774 23.0743 37.8411 17.1965Z" fill="#F1F1F1"/>
<path d="M22.1719 82.7998V85.7438" stroke="#E5E5E5" stroke-width="4" stroke-linecap="round"/>
<path d="M20.7002 84.272L23.6442 84.272" stroke="#E5E5E5" stroke-width="4" stroke-linecap="round"/>
<path d="M90.7119 17.48V20.424" stroke="#E5E5E5" stroke-width="4" stroke-linecap="round"/>
<path d="M89.2402 18.9521L92.1842 18.9521" stroke="#E5E5E5" stroke-width="4" stroke-linecap="round"/>
<circle cx="57.7304" cy="57.7304" r="27.83" fill="#FCC606"/>
<path fill-rule="evenodd" clip-rule="evenodd" d="M60.3832 41.1735C60.3832 39.9033 59.3535 38.8735 58.0832 38.8735C56.813 38.8735 55.7832 39.9033 55.7832 41.1735V62.3102C55.7832 63.5805 56.813 64.6102 58.0832 64.6102C59.3535 64.6102 60.3832 63.5805 60.3832 62.3102V41.1735ZM60.3832 71.4695C60.3832 70.1992 59.3535 69.1695 58.0832 69.1695C56.813 69.1695 55.7832 70.1992 55.7832 71.4695V72.8786C55.7832 74.1488 56.813 75.1786 58.0832 75.1786C59.3535 75.1786 60.3832 74.1488 60.3832 72.8786V71.4695Z" fill="white"/>
</svg>
